<svg
  xmlns="http://www.w3.org/2000/svg"
  width="1024"
  height="1024"
  viewBox="0 0 64 64"
  fill="none"
>
  <defs>
    <filter id="shadow" x="0" y="0" width="64" height="64" filterUnits="userSpaceOnUse">
      <feOffset dy="3" />
      <feGaussianBlur stdDeviation="3" />
      <feColorMatrix
        type="matrix"
        values="0 0 0 0 0.0588 0 0 0 0 0.0667 0 0 0 0 0.0863 0 0 0 0.16 0"
      />
    </filter>
    <linearGradient id="tile" x1="32" y1="5" x2="32" y2="59" gradientUnits="userSpaceOnUse">
      <stop stop-color="#FFFFFF" />
      <stop offset="1" stop-color="#F5F6F7" />
    </linearGradient>
  </defs>
  <g filter="url(#shadow)">
    <rect x="5" y="5" width="54" height="54" rx="14" fill="url(#tile)" />
  </g>
  <rect x="5.5" y="5.5" width="53" height="53" rx="13.5" stroke="#E6E9EE" />
  <circle cx="32" cy="32" r="17.5" stroke="#334F74" stroke-width="8" />
  <path
    d="M39.4 16.2C42.5 15 46.4 15.2 49 17.1C50.7 18.4 51.9 20.4 52.2 22.6C50.4 25 47.2 26.5 43.8 26.5C40.3 26.4 37.1 24.8 35.1 22.2C35.9 19.7 37.2 17.9 39.4 16.2Z"
    fill="#334F74"
  />
  <ellipse cx="43.4" cy="18.9" rx="1.65" ry="1.15" fill="#F5F6F7" transform="rotate(24 43.4 18.9)" />
</svg>
